<mxfile host="app.diagrams.net" modified="2023-09-17T14:24:35.337Z" agent="Mozilla/5.0 (Windows NT 10.0; Win64; x64) AppleWebKit/537.36 (KHTML, like Gecko) Chrome/116.0.0.0 Safari/537.36 Edg/116.0.1938.81" etag="k7D8PsUFDzp8fs0aU-jp" version="21.7.5" type="device">
  <diagram name="Page-1" id="jIGIDedn_cQvrCLkk4k-">
    <mxGraphModel dx="2303" dy="1322" grid="1" gridSize="10" guides="1" tooltips="1" connect="1" arrows="1" fold="1" page="1" pageScale="1" pageWidth="850" pageHeight="1100" math="0" shadow="0">
      <root>
        <mxCell id="0" />
        <mxCell id="1" parent="0" />
        <mxCell id="OMmAKzkHFce6SoPdL8El-3" value="Agente:Browser" style="verticalAlign=top;align=left;spacingTop=8;spacingLeft=2;spacingRight=12;shape=cube;size=10;direction=south;fontStyle=4;html=1;whiteSpace=wrap;" vertex="1" parent="1">
          <mxGeometry x="460" y="70" width="340" height="210" as="geometry" />
        </mxCell>
        <mxCell id="OMmAKzkHFce6SoPdL8El-6" value="Banco de Dados" style="verticalAlign=top;align=left;spacingTop=8;spacingLeft=2;spacingRight=12;shape=cube;size=10;direction=south;fontStyle=4;html=1;whiteSpace=wrap;" vertex="1" parent="1">
          <mxGeometry x="330" y="680" width="340" height="210" as="geometry" />
        </mxCell>
        <mxCell id="OMmAKzkHFce6SoPdL8El-7" value="Cliente:Browser" style="verticalAlign=top;align=left;spacingTop=8;spacingLeft=2;spacingRight=12;shape=cube;size=10;direction=south;fontStyle=4;html=1;whiteSpace=wrap;" vertex="1" parent="1">
          <mxGeometry x="10" y="70" width="340" height="210" as="geometry" />
        </mxCell>
        <mxCell id="OMmAKzkHFce6SoPdL8El-1" value="Pedido de aluguel" style="shape=module;align=left;spacingLeft=20;align=center;verticalAlign=top;whiteSpace=wrap;html=1;" vertex="1" parent="1">
          <mxGeometry x="20" y="140" width="100" height="50" as="geometry" />
        </mxCell>
        <mxCell id="OMmAKzkHFce6SoPdL8El-8" value="Servidor Back-end&amp;nbsp;" style="verticalAlign=top;align=left;spacingTop=8;spacingLeft=2;spacingRight=12;shape=cube;size=10;direction=south;fontStyle=4;html=1;whiteSpace=wrap;" vertex="1" parent="1">
          <mxGeometry x="195" y="330" width="535" height="300" as="geometry" />
        </mxCell>
        <mxCell id="OMmAKzkHFce6SoPdL8El-11" value="ViewLayer" style="shape=module;align=left;spacingLeft=20;align=center;verticalAlign=top;whiteSpace=wrap;html=1;" vertex="1" parent="1">
          <mxGeometry x="310" y="435" width="100" height="50" as="geometry" />
        </mxCell>
        <mxCell id="OMmAKzkHFce6SoPdL8El-12" value="DataBaseLayer" style="shape=module;align=left;spacingLeft=20;align=center;verticalAlign=top;whiteSpace=wrap;html=1;" vertex="1" parent="1">
          <mxGeometry x="420" y="550" width="100" height="50" as="geometry" />
        </mxCell>
        <mxCell id="OMmAKzkHFce6SoPdL8El-13" value="ServiceLayer" style="shape=module;align=left;spacingLeft=20;align=center;verticalAlign=top;whiteSpace=wrap;html=1;fillColor=default;strokeColor=default;" vertex="1" parent="1">
          <mxGeometry x="610" y="435" width="100" height="55" as="geometry" />
        </mxCell>
        <mxCell id="OMmAKzkHFce6SoPdL8El-15" value="Gerenciar pedidos&amp;nbsp;" style="shape=module;align=left;spacingLeft=20;align=center;verticalAlign=top;whiteSpace=wrap;html=1;" vertex="1" parent="1">
          <mxGeometry x="500" y="150" width="100" height="50" as="geometry" />
        </mxCell>
        <mxCell id="OMmAKzkHFce6SoPdL8El-75" style="edgeStyle=orthogonalEdgeStyle;rounded=0;orthogonalLoop=1;jettySize=auto;html=1;exitX=0.5;exitY=1;exitDx=0;exitDy=0;entryX=0;entryY=0.5;entryDx=0;entryDy=0;entryPerimeter=0;endArrow=none;endFill=0;" edge="1" parent="1" source="OMmAKzkHFce6SoPdL8El-16" target="OMmAKzkHFce6SoPdL8El-73">
          <mxGeometry relative="1" as="geometry" />
        </mxCell>
        <mxCell id="OMmAKzkHFce6SoPdL8El-16" value="Gerenciar agentes" style="shape=module;align=left;spacingLeft=20;align=center;verticalAlign=top;whiteSpace=wrap;html=1;" vertex="1" parent="1">
          <mxGeometry x="630" y="150" width="100" height="50" as="geometry" />
        </mxCell>
        <mxCell id="OMmAKzkHFce6SoPdL8El-34" value="SGBD" style="shape=module;align=left;spacingLeft=20;align=center;verticalAlign=top;whiteSpace=wrap;html=1;" vertex="1" parent="1">
          <mxGeometry x="470" y="790" width="100" height="50" as="geometry" />
        </mxCell>
        <mxCell id="OMmAKzkHFce6SoPdL8El-68" style="edgeStyle=orthogonalEdgeStyle;rounded=0;orthogonalLoop=1;jettySize=auto;html=1;exitX=0;exitY=0.5;exitDx=0;exitDy=0;exitPerimeter=0;entryX=0;entryY=0;entryDx=0;entryDy=15;entryPerimeter=0;endArrow=none;endFill=0;" edge="1" parent="1" source="OMmAKzkHFce6SoPdL8El-44" target="OMmAKzkHFce6SoPdL8El-13">
          <mxGeometry relative="1" as="geometry" />
        </mxCell>
        <mxCell id="OMmAKzkHFce6SoPdL8El-71" style="edgeStyle=orthogonalEdgeStyle;rounded=0;orthogonalLoop=1;jettySize=auto;html=1;exitX=1;exitY=0.5;exitDx=0;exitDy=0;exitPerimeter=0;entryX=1;entryY=0.25;entryDx=0;entryDy=0;endArrow=none;endFill=0;" edge="1" parent="1" source="OMmAKzkHFce6SoPdL8El-44" target="OMmAKzkHFce6SoPdL8El-12">
          <mxGeometry relative="1" as="geometry" />
        </mxCell>
        <mxCell id="OMmAKzkHFce6SoPdL8El-44" value="" style="shape=providedRequiredInterface;html=1;verticalLabelPosition=bottom;sketch=0;direction=south;" vertex="1" parent="1">
          <mxGeometry x="560" y="470" width="20" height="20" as="geometry" />
        </mxCell>
        <mxCell id="OMmAKzkHFce6SoPdL8El-80" style="edgeStyle=orthogonalEdgeStyle;rounded=0;orthogonalLoop=1;jettySize=auto;html=1;exitX=0;exitY=0.5;exitDx=0;exitDy=0;exitPerimeter=0;entryX=1;entryY=1;entryDx=0;entryDy=0;endArrow=none;endFill=0;" edge="1" parent="1" source="OMmAKzkHFce6SoPdL8El-52" target="OMmAKzkHFce6SoPdL8El-12">
          <mxGeometry relative="1" as="geometry" />
        </mxCell>
        <mxCell id="OMmAKzkHFce6SoPdL8El-52" value="" style="shape=providedRequiredInterface;html=1;verticalLabelPosition=bottom;sketch=0;direction=south;" vertex="1" parent="1">
          <mxGeometry x="510" y="720" width="20" height="20" as="geometry" />
        </mxCell>
        <mxCell id="OMmAKzkHFce6SoPdL8El-53" value="" style="endArrow=none;html=1;rounded=0;entryX=1;entryY=0.5;entryDx=0;entryDy=0;entryPerimeter=0;exitX=0.5;exitY=0;exitDx=0;exitDy=0;" edge="1" parent="1" source="OMmAKzkHFce6SoPdL8El-34" target="OMmAKzkHFce6SoPdL8El-52">
          <mxGeometry width="50" height="50" relative="1" as="geometry">
            <mxPoint x="530" y="860" as="sourcePoint" />
            <mxPoint x="580" y="810" as="targetPoint" />
          </mxGeometry>
        </mxCell>
        <mxCell id="OMmAKzkHFce6SoPdL8El-58" value="" style="edgeStyle=orthogonalEdgeStyle;rounded=0;orthogonalLoop=1;jettySize=auto;html=1;endArrow=none;endFill=0;" edge="1" parent="1" source="OMmAKzkHFce6SoPdL8El-57" target="OMmAKzkHFce6SoPdL8El-13">
          <mxGeometry relative="1" as="geometry" />
        </mxCell>
        <mxCell id="OMmAKzkHFce6SoPdL8El-69" style="edgeStyle=orthogonalEdgeStyle;rounded=0;orthogonalLoop=1;jettySize=auto;html=1;exitX=0;exitY=0.5;exitDx=0;exitDy=0;exitPerimeter=0;entryX=0.9;entryY=0.1;entryDx=0;entryDy=0;endArrow=none;endFill=0;entryPerimeter=0;" edge="1" parent="1" source="OMmAKzkHFce6SoPdL8El-57" target="OMmAKzkHFce6SoPdL8El-11">
          <mxGeometry relative="1" as="geometry" />
        </mxCell>
        <mxCell id="OMmAKzkHFce6SoPdL8El-57" value="" style="shape=providedRequiredInterface;html=1;verticalLabelPosition=bottom;sketch=0;direction=south;" vertex="1" parent="1">
          <mxGeometry x="650" y="390" width="20" height="20" as="geometry" />
        </mxCell>
        <mxCell id="OMmAKzkHFce6SoPdL8El-76" style="edgeStyle=orthogonalEdgeStyle;rounded=0;orthogonalLoop=1;jettySize=auto;html=1;exitX=0;exitY=0.5;exitDx=0;exitDy=0;exitPerimeter=0;entryX=0.5;entryY=1;entryDx=0;entryDy=0;endArrow=none;endFill=0;" edge="1" parent="1" source="OMmAKzkHFce6SoPdL8El-72" target="OMmAKzkHFce6SoPdL8El-1">
          <mxGeometry relative="1" as="geometry" />
        </mxCell>
        <mxCell id="OMmAKzkHFce6SoPdL8El-77" style="edgeStyle=orthogonalEdgeStyle;rounded=0;orthogonalLoop=1;jettySize=auto;html=1;exitX=1;exitY=0.5;exitDx=0;exitDy=0;exitPerimeter=0;entryX=0.25;entryY=0;entryDx=0;entryDy=0;endArrow=none;endFill=0;" edge="1" parent="1" source="OMmAKzkHFce6SoPdL8El-72" target="OMmAKzkHFce6SoPdL8El-11">
          <mxGeometry relative="1" as="geometry" />
        </mxCell>
        <mxCell id="OMmAKzkHFce6SoPdL8El-72" value="" style="shape=providedRequiredInterface;html=1;verticalLabelPosition=bottom;sketch=0;direction=south;" vertex="1" parent="1">
          <mxGeometry x="320" y="400" width="20" height="20" as="geometry" />
        </mxCell>
        <mxCell id="OMmAKzkHFce6SoPdL8El-74" style="edgeStyle=orthogonalEdgeStyle;rounded=0;orthogonalLoop=1;jettySize=auto;html=1;exitX=0;exitY=0.5;exitDx=0;exitDy=0;exitPerimeter=0;endArrow=none;endFill=0;" edge="1" parent="1" source="OMmAKzkHFce6SoPdL8El-73" target="OMmAKzkHFce6SoPdL8El-15">
          <mxGeometry relative="1" as="geometry" />
        </mxCell>
        <mxCell id="OMmAKzkHFce6SoPdL8El-78" style="edgeStyle=orthogonalEdgeStyle;rounded=0;orthogonalLoop=1;jettySize=auto;html=1;exitX=1;exitY=0.5;exitDx=0;exitDy=0;exitPerimeter=0;endArrow=none;endFill=0;entryX=0.75;entryY=0;entryDx=0;entryDy=0;" edge="1" parent="1" source="OMmAKzkHFce6SoPdL8El-73" target="OMmAKzkHFce6SoPdL8El-11">
          <mxGeometry relative="1" as="geometry" />
        </mxCell>
        <mxCell id="OMmAKzkHFce6SoPdL8El-73" value="" style="shape=providedRequiredInterface;html=1;verticalLabelPosition=bottom;sketch=0;direction=south;" vertex="1" parent="1">
          <mxGeometry x="360" y="400" width="20" height="20" as="geometry" />
        </mxCell>
      </root>
    </mxGraphModel>
  </diagram>
</mxfile>
